<?xml version="1.0" encoding="utf-8"?>
<!-- Generator: Adobe Illustrator 16.0.0, SVG Export Plug-In . SVG Version: 6.00 Build 0)  -->
<!DOCTYPE svg PUBLIC "-//W3C//DTD SVG 1.1//EN" "http://www.w3.org/Graphics/SVG/1.1/DTD/svg11.dtd">
<svg version="1.1" id="Layer_1" xmlns="http://www.w3.org/2000/svg" xmlns:xlink="http://www.w3.org/1999/xlink" x="0px" y="0px"
	 width="70px" height="70px" viewBox="0 0 70 70" enable-background="new 0 0 70 70" xml:space="preserve">
<g>
	<defs>
		<rect id="SVGID_1_" y="0" width="70" height="70"/>
	</defs>
	<clipPath id="SVGID_2_">
		<use xlink:href="#SVGID_1_"  overflow="visible"/>
	</clipPath>
	<path clip-path="url(#SVGID_2_)" fill="#512C1D" d="M70,35c0,19.332-15.671,35-35,35C15.669,70,0,54.332,0,35
		C0,15.67,15.669,0,35,0C54.329,0,70,15.67,70,35"/>
	<path clip-path="url(#SVGID_2_)" fill-rule="evenodd" clip-rule="evenodd" fill="#EEE2D6" d="M34.017,21.82
		c0.442-0.008,0.891,0,1.333,0.019c0.532,0.024,1.075,0.043,1.611,0.083c0.536,0.042,1.059,0.116,1.58,0.241
		c0.552,0.128,1.076,0.271,1.597,0.499c0.791,0.35,1.519,0.835,1.976,1.596c0.694,1.142,0.806,2.475,0.292,3.697
		c-0.131,0.306-0.271,0.67-0.462,0.944c-0.414,0.598-0.849,1.076-1.441,1.514c-0.191,0.145-0.435,0.237-0.651,0.341
		c-0.517,0.236-1.052,0.433-1.605,0.572c-1.157,0.294-2.375,0.421-3.569,0.416c-0.714-0.006-1.412-0.047-2.123-0.122
		c-1.203-0.132-2.372-0.447-3.422-1.076c-1.057-0.629-1.951-1.542-2.285-2.755c-0.127-0.474-0.245-0.942-0.187-1.44
		c0.059-0.477,0.245-0.954,0.495-1.361c0.207-0.353,0.468-0.782,0.771-1.059c0.383-0.348,0.842-0.753,1.305-0.996
		c1.12-0.587,2.385-0.917,3.634-1.044C33.249,21.849,33.637,21.827,34.017,21.82 M42.12,25.938c0.076-0.002,0.151,0.01,0.207,0.044
		c-0.019-0.01-1.033,0.68-1.162,0.735c-0.488,0.212-1.015,0.393-1.538,0.515c-0.904,0.221-1.935,0.094-2.846,0.002
		c-0.645-0.063-1.275-0.215-1.924-0.228c-0.639-0.018-1.272,0.103-1.898,0.2c-0.258,0.04-0.514,0.08-0.773,0.102
		c-1.084,0.1-2.171,0.056-3.25-0.068c-0.651-0.075-1.471-0.119-1.859-0.726c0.89,0.51,2.056,0.442,3.029,0.234
		c1.24-0.265,2.365-0.643,3.655-0.595c0.96,0.037,1.911,0.214,2.874,0.28c1.379,0.097,2.749-0.037,4.117-0.212
		c0.236-0.031,0.476-0.05,0.707-0.102C41.633,26.075,41.899,25.947,42.12,25.938"/>
	<path clip-path="url(#SVGID_2_)" fill-rule="evenodd" clip-rule="evenodd" fill="#EEE2D6" d="M46.961,38.457
		c-0.269,0.537-0.521,1.082-0.797,1.617c-0.201,0.401-0.423,0.76-0.68,1.132c-0.295,0.427-0.626,0.854-1.012,1.213
		c-0.397,0.367-0.863,0.653-1.355,0.881c-0.287,0.133-0.584,0.279-0.889,0.376c-0.671,0.212-1.358,0.369-2.03,0.582
		c-0.419,0.131-0.821,0.283-1.236,0.425c-0.644,0.208-1.264,0.505-1.882,0.79c-0.764,0.351-1.536,0.752-2.177,1.302
		c-0.226,0.187-0.444,0.436-0.63,0.663c-0.156,0.193-0.258,0.422-0.369,0.643c-0.058,0.17-0.118,0.344-0.17,0.518
		c-0.094,0.328-0.116,0.67-0.149,1.01c-0.042,0.395-0.033,0.799-0.054,1.193c-0.005,0.084-0.012,0.163-0.012,0.241
		c-0.009,0.106,0.053,0.313-0.044,0.393c-0.092,0.071-0.316-0.023-0.365-0.111c-0.076-0.145,0.01-0.318-0.008-0.469
		c-0.015-0.176-0.029-0.352-0.059-0.526c-0.053-0.33-0.156-0.656-0.28-0.968c-0.158-0.394-0.416-0.406-0.767-0.582
		c-0.206-0.105-0.416-0.209-0.621-0.32c-0.407-0.208-0.806-0.428-1.196-0.666c-0.733-0.442-1.432-0.949-2.032-1.567
		c-0.566-0.58-1.024-1.267-1.352-2.01c-0.339-0.784-0.535-1.628-0.654-2.47c-0.123-0.919-0.162-1.847-0.193-2.771
		c-0.004-0.14-0.016-0.288,0-0.42c0.022-0.151,0.944,0.608,0.992,0.647c0.964,0.808,2,1.527,2.917,2.388
		c0.587,0.55,1.13,1.153,1.562,1.83c0.432,0.686,0.742,1.431,0.938,2.214c0.165,0.646,0.257,1.318,0.322,1.984
		c0.059,0.584,0.045,1.205,0.441,1.68c-0.041-0.047,0.116-0.505,0.131-0.589c0.105-0.564,0.029-1.069-0.078-1.63
		c-0.133-0.715-0.281-1.614,0.132-2.264c0.143,0.046,0.226,0.243,0.271,0.387c-0.042-0.147,0.139-0.548,0.215-0.65
		c0.216,0.224,0.077,0.65,0.146,0.928c0.125-0.077,0.232-0.2,0.342-0.305c0.202,0.775-0.411,1.657-0.703,2.345
		c0.772-0.521,1.185-1.426,1.585-2.229c0.435-0.869,0.858-1.681,1.455-2.454c1.07-1.39,2.532-2.509,4.164-3.17
		c1.142-0.464,2.342-0.562,3.556-0.709c0.777-0.096,1.537-0.223,2.298-0.397L46.961,38.457z M26.625,39.655
		c0.974,1.112,2.016,2.158,2.806,3.428c0.471,0.76,0.979,1.494,1.428,2.268c0.28,0.485,0.577,0.96,0.833,1.458
		c0.129,0.251,0.265,0.501,0.4,0.752c0.102,0.185,0.292,0.425,0.312,0.642c-0.438,0.014-0.406-0.083-0.608-0.439
		c-0.117-0.202-0.236-0.41-0.357-0.614c-0.941-1.585-1.967-3.112-2.979-4.649c-0.287-0.438-0.574-0.879-0.857-1.321
		c-0.173-0.267-0.344-0.526-0.515-0.792C26.937,40.149,26.807,39.859,26.625,39.655 M45.656,39.372
		c-0.04,0.162-0.27,0.266-0.372,0.38c-0.604,0.688-1.378,1.074-2.126,1.572c-0.929,0.618-1.957,1.039-2.954,1.522
		c-0.975,0.479-1.929,1.009-2.821,1.634c-0.494,0.346-0.968,0.711-1.412,1.123c-0.055,0.05-0.448,0.451-0.541,0.34
		c-0.253-0.29,1.043-1.25,1.171-1.359c0.63-0.548,1.303-1.026,2.012-1.469c0.414-0.256,0.822-0.494,1.266-0.707
		c0.414-0.204,0.833-0.395,1.255-0.575c0.485-0.213,0.983-0.44,1.443-0.689c0.319-0.172,0.657-0.31,0.975-0.477
		c0.659-0.348,1.274-0.782,1.901-1.187c0.067-0.044,0.153-0.074,0.213-0.137C45.665,39.359,45.662,39.365,45.656,39.372"/>
	
		<rect x="5.657" y="35.266" clip-path="url(#SVGID_2_)" fill-rule="evenodd" clip-rule="evenodd" fill="#EEE2D6" width="58.759" height="2.146"/>
	<path clip-path="url(#SVGID_2_)" fill-rule="evenodd" clip-rule="evenodd" fill="#EEE2D6" d="M35,17.719
		c9.073,0,16.514,6.968,17.276,15.844h2.242C53.753,23.453,45.307,15.489,35,15.489c-10.306,0-18.752,7.964-19.519,18.074h2.243
		C18.485,24.687,25.927,17.719,35,17.719"/>
	<path clip-path="url(#SVGID_2_)" fill-rule="evenodd" clip-rule="evenodd" fill="#EEE2D6" d="M51.911,38.913
		C50.16,46.639,43.257,52.409,35,52.409c-8.256,0-15.158-5.771-16.911-13.496h-2.285c1.789,8.97,9.703,15.728,19.196,15.728
		c9.494,0,17.407-6.758,19.196-15.728H51.911z"/>
	<path clip-path="url(#SVGID_2_)" fill="#EEE2D6" d="M34.933,1.44C16.397,1.44,1.373,16.466,1.373,35
		c0,15.42,10.398,28.411,24.566,32.341v-1.046C12.334,62.394,2.379,49.86,2.379,35c0-17.979,14.575-32.553,32.554-32.553
		c17.979,0,32.553,14.575,32.553,32.553c0,14.693-9.732,27.112-23.104,31.16v1.053C58.317,63.13,68.492,50.253,68.492,35
		C68.492,16.466,53.467,1.44,34.933,1.44"/>
	<path clip-path="url(#SVGID_2_)" fill-rule="evenodd" clip-rule="evenodd" fill="#EEE2D6" d="M28.653,56.576
		c-0.359,0.688-2.047,0.384-2.64,0.092c-0.352-0.174-0.511-0.217-0.663-0.032l-2.997,3.561c-0.2,0.243-0.214,0.464-0.122,0.605
		c0.284,0.44,0.213,0.808-0.235,0.573c-0.292-0.144-0.652-0.303-0.983-0.474c-0.326-0.17-0.648-0.329-0.885-0.49
		c-0.371-0.258-0.28-0.591,0.092-0.545c0.373,0.043,0.76,0.075,1.048-0.265l2.935-3.442c0.371-0.43,0.097-0.752-0.1-0.919
		c-0.19-0.166-0.71-0.7-1.397-1.059c-0.954-0.499-2.138-0.483-2.635,0.47c-0.383,0.734-0.214,1.257,0.429,1.592
		c0.413,0.215,0.581,0.086,0.813-0.359c0.201-0.384,0.494-0.609,0.911-0.391c0.333,0.174,0.418,0.576,0.279,0.842
		c-0.398,0.763-1.618,0.759-2.239,0.434c-0.903-0.47-1.291-1.437-0.812-2.355c0.854-1.637,2.71-1.213,4.17-0.451
		c0.296,0.152,2.492,1.617,3.438,2.111c0.181,0.097,0.348,0.144,0.508,0.191c0.252,0.064,0.395,0.036,0.749-0.063
		C28.585,56.125,28.804,56.288,28.653,56.576"/>
	<path clip-path="url(#SVGID_2_)" fill-rule="evenodd" clip-rule="evenodd" fill="#EEE2D6" d="M44.453,60.901
		c-0.127,0.635-0.14,1.034-0.177,1.616c-0.019,0.292-0.063,0.58-0.675,0.692c-0.21,0.036-0.858,0.154-1.605,0.317
		c-0.797,0.176-1.708,0.396-2.32,0.571c-0.886,0.262-0.966-0.329-0.641-0.483c0.757-0.353,0.789-0.513,0.806-1.039l0.118-4.005
		c0.011-0.215,0.007-0.392-0.023-0.528c-0.075-0.338-0.33-0.51-0.907-0.518c-0.555-0.014-1.131,0.021-1.449,0.092
		c-1.266,0.279-1.949,0.808-1.711,1.888c0.103,0.469,0.526,0.797,1.036,0.686c0.224-0.05,0.419-0.254,0.377-0.447
		c-0.104-0.466,0.197-0.693,0.396-0.736c0.391-0.086,0.638,0.086,0.727,0.489c0.123,0.565-0.535,1.132-1.156,1.268
		c-0.82,0.18-1.771-0.157-1.972-1.067c-0.316-1.435,0.729-2.3,2.075-2.597c0.302-0.064,0.607-0.081,0.917-0.116
		c0.662-0.062,1.764-0.178,2.679-0.38c0.325-0.07,0.604-0.174,0.825-0.267c0.212-0.096,0.394-0.146,0.52-0.182
		c0.318-0.069,0.429,0.015,0.417,0.152c-0.011,0.258-0.247,0.436-0.518,0.563c-0.835,0.378-0.972,0.704-0.979,1.052l-0.142,4.467
		c-0.005,0.204-0.016,0.351,0.007,0.447c0.057,0.258,0.603,0.197,0.968,0.116c1.003-0.222,1.482-0.963,1.821-1.923
		c0.097-0.283,0.185-0.521,0.32-0.552C44.36,60.439,44.509,60.583,44.453,60.901"/>
	<path clip-path="url(#SVGID_2_)" fill-rule="evenodd" clip-rule="evenodd" fill="#EEE2D6" d="M16.038,56.608
		c-0.464,0.378-1.6-0.138-1.986-0.61c-0.278-0.344-0.491-0.831-0.551-1.519c-0.708-0.242-1.306-0.67-1.743-1.207
		c-0.782-0.962-0.884-2.519,0.149-3.358c0.897-0.73,2.08-0.464,3.136-0.061c0.063-0.072,0.13-0.147,0.209-0.212
		c0.831-0.675,2.328-1.053,3.079-0.131c0.396,0.487,0.469,1.258-0.074,1.7c-0.72,0.584-1.979,0.159-2.779-0.154
		c-0.372,0.532-1.083,2.076-1.083,2.959c0.629,0.118,1.134-0.103,1.487-0.391c0.302-0.245,0.383-0.532,0.632-0.734
		c0.249-0.202,0.617-0.136,0.854,0.156c0.231,0.284,0.044,0.668-0.303,0.949c-0.452,0.368-1.342,0.61-2.735,0.555
		c-0.118,0.631,0.005,0.994,0.169,1.196c0.123,0.152,0.289,0.195,0.395,0.206c0.287,0.017,0.682-0.337,0.888-0.324
		c0.152,0.013,0.252,0.068,0.319,0.148C16.323,56.05,16.268,56.421,16.038,56.608 M17.922,50.664
		c0.274-0.224,0.365-0.591,0.108-0.909c-0.427-0.523-1.208-0.161-1.692,0.232c-0.164,0.133-0.292,0.269-0.376,0.38
		C16.479,50.724,17.477,51.026,17.922,50.664 M13.475,53.872c-0.008-0.623,0.211-2.013,0.865-3.226
		c-0.527-0.275-1.156-0.204-1.621,0.172c-0.772,0.629-0.813,1.701-0.231,2.416C12.694,53.487,13.032,53.688,13.475,53.872"/>
	<path clip-path="url(#SVGID_2_)" fill-rule="evenodd" clip-rule="evenodd" fill="#EEE2D6" d="M53.64,48.576
		c0.172,0.179,0.316,0.516,0.128,0.695c-0.45,0.438-1.015-0.253-1.214-0.06c-0.241,0.231-0.048,0.947,0.483,1.802l0.501,0.788
		l0.259-0.249c0.326-0.318,0.849,0.142,0.421,0.554l-0.31,0.301l1.533,2.515c0.143,0.228,0.29,0.383,0.539,0.228
		c0.333-0.217,0.555,0.082,0.368,0.263l-1.427,1.378c-0.221,0.213-0.554-0.023-0.384-0.283c0.287-0.442,0.279-0.614,0.088-0.917
		l-1.486-2.441l-0.164,0.161c-0.305,0.294-0.827-0.166-0.398-0.58l0.188-0.181l-0.232-0.427c-0.651-1.227-0.897-2.561-0.041-3.387
		C52.807,48.43,53.254,48.177,53.64,48.576"/>
	<path clip-path="url(#SVGID_2_)" fill-rule="evenodd" clip-rule="evenodd" fill="#EEE2D6" d="M52.377,54.892
		c0.134,0.177,0.256,0.419,0.376,0.688l0.514,1.194c0.142,0.324,0.369,0.477,0.61,0.294c0.436-0.328,0.59,0.333,0.056,0.736
		c-0.41,0.31-0.906,0.408-1.278,0.188c-0.063,0.498-0.419,1.123-0.984,1.55c-0.656,0.496-1.282,0.643-1.778-0.015
		c-0.644-0.853-0.078-1.77,0.354-2.197c0.252-0.262,0.75-0.67,0.996-0.938c0.312-0.346,0.415-0.67,0.11-1.071
		c-0.274-0.365-0.746-0.326-1.168-0.009c-0.476,0.361-0.402,0.593-0.229,0.92c0.156,0.298,0.12,0.644-0.277,0.942
		c-0.207,0.156-0.485,0.113-0.663-0.122c-0.447-0.591,0.21-1.506,0.887-2.017C50.93,54.259,51.748,54.059,52.377,54.892
		 M51.942,56.426c-0.463,0.605-1.876,1.518-1.263,2.332c0.257,0.339,0.582,0.296,0.855,0.09c0.65-0.491,0.974-1.481,0.574-2.149
		L51.942,56.426z"/>
	<path clip-path="url(#SVGID_2_)" fill-rule="evenodd" clip-rule="evenodd" fill="#EEE2D6" d="M48.476,57.8
		c0.057,0.107,0.103,0.232,0.155,0.369l-2.835,1.474c0.08,0.346,0.18,0.661,0.315,0.921c0.335,0.645,0.919,1.096,1.648,0.716
		c0.428-0.222,0.769-0.732,0.494-1.261c-0.182-0.346-0.265-0.752,0.191-0.99c0.274-0.144,0.572,0.004,0.711,0.272
		c0.438,0.84-0.62,2.04-1.37,2.432c-1.273,0.663-2.303,0.115-2.784-0.813c-0.583-1.118-0.382-2.796,1.15-3.595
		C46.904,56.935,47.951,56.793,48.476,57.8 M47.431,58.122c-0.366-1.143-2.027-0.277-1.756,0.915L47.431,58.122z"/>
	<path clip-path="url(#SVGID_2_)" fill-rule="evenodd" clip-rule="evenodd" fill="#EEE2D6" d="M33.243,61.29
		c-0.033,0.217-0.12,0.477-0.226,0.749l-0.489,1.205c-0.131,0.326-0.079,0.599,0.219,0.642c0.532,0.077,0.176,0.651-0.485,0.557
		c-0.507-0.075-0.928-0.358-1.031-0.777c-0.399,0.303-1.093,0.489-1.794,0.387c-0.814-0.118-1.359-0.462-1.239-1.276
		c0.154-1.057,1.204-1.299,1.813-1.293c0.363-0.004,1.003,0.064,1.368,0.052c0.465-0.021,0.768-0.176,0.841-0.674
		c0.066-0.453-0.292-0.761-0.817-0.838c-0.588-0.086-0.702,0.127-0.812,0.483c-0.105,0.32-0.375,0.537-0.867,0.466
		c-0.258-0.039-0.423-0.269-0.381-0.559c0.107-0.734,1.222-0.908,2.059-0.786C32.677,59.813,33.394,60.257,33.243,61.29
		 M31.845,62.057c-0.755,0.094-2.398-0.269-2.546,0.74c-0.061,0.419,0.198,0.621,0.535,0.673c0.807,0.118,1.741-0.349,1.933-1.103
		L31.845,62.057z"/>
	<path clip-path="url(#SVGID_2_)" fill-rule="evenodd" clip-rule="evenodd" fill="#EEE2D6" d="M28.539,60.684
		c-0.04,0.116-0.097,0.234-0.161,0.367l-3.021-1.037c-0.197,0.295-0.357,0.584-0.452,0.861c-0.236,0.688-0.16,1.422,0.618,1.688
		c0.456,0.156,1.06,0.051,1.252-0.512c0.127-0.369,0.365-0.711,0.852-0.543c0.292,0.101,0.39,0.419,0.292,0.704
		c-0.307,0.894-1.904,0.956-2.708,0.681c-1.355-0.466-1.667-1.589-1.329-2.577c0.41-1.193,1.765-2.203,3.4-1.643
		C28.083,58.949,28.907,59.612,28.539,60.684 M27.585,60.149c0.577-1.053-1.196-1.66-1.873-0.645L27.585,60.149z"/>
	<path clip-path="url(#SVGID_2_)" fill-rule="evenodd" clip-rule="evenodd" fill="#EEE2D6" d="M57.886,32.833
		c-0.779,0.29-1.733-0.217-2.015-0.974c-0.485-1.306,0.518-2.235,1.733-2.338l1.782-0.14c0.17-0.011,0.34-0.048,0.487-0.094
		c0.481-0.179,0.58-0.546,0.385-1.073c-0.228-0.611-0.859-1.047-1.737-0.929l-1.667,0.218c-0.171,0.03-0.274,0.172-0.281,0.322
		c-0.011,0.37-0.418,0.347-0.561-0.035l-0.489-1.322c-0.095-0.251,0.26-0.324,0.412-0.127c0.091,0.104,0.102,0.179,0.44,0.131
		l2.573-0.312c0.257-0.034,0.386-0.082,0.317-0.361c-0.113-0.445,0.26-0.471,0.442-0.26c0.32,0.368,0.621,1.256,0.681,1.416
		c0.05,0.13-0.021,0.174-0.113,0.182l-0.46,0.05c0.786,0.411,1.162,0.951,1.314,1.363c0.274,0.741-0.021,1.513-0.752,1.792
		c-0.229,0.085-0.507,0.11-0.792,0.137l-2.058,0.156c-0.479,0.039-1.583,0.231-1.275,1.056c0.099,0.267,0.5,0.439,0.769,0.34
		c0.222-0.082,0.376-0.322,0.597-0.404c0.224-0.082,0.514,0.018,0.625,0.315C58.391,32.341,58.215,32.711,57.886,32.833"/>
	<path clip-path="url(#SVGID_2_)" fill-rule="evenodd" clip-rule="evenodd" fill="#EEE2D6" d="M30.354,6.312
		c0.075,0.237,0.041,0.586-0.208,0.665c-0.591,0.187-0.781-0.655-1.037-0.574c-0.327,0.103-0.46,0.813-0.384,1.787l0.073,0.906
		l0.357-0.112c0.428-0.135,0.682,0.479,0.114,0.658l-0.403,0.127l0.216,2.847c0.016,0.265,0.085,0.46,0.367,0.432
		c0.395-0.047,0.474,0.31,0.226,0.388l-1.889,0.597c-0.294,0.093-0.484-0.264-0.224-0.415c0.447-0.263,0.528-0.41,0.503-0.758
		l-0.226-2.767l-0.209,0.066c-0.412,0.131-0.665-0.483-0.098-0.664l0.241-0.076V8.933c0.004-1.338,0.419-2.623,1.554-2.981
		C29.745,5.819,30.192,5.8,30.354,6.312"/>
	<path clip-path="url(#SVGID_2_)" fill-rule="evenodd" clip-rule="evenodd" fill="#EEE2D6" d="M33.926,5.817
		c0.054,0.243-0.01,0.588-0.265,0.645c-0.604,0.135-0.721-0.72-0.983-0.662c-0.333,0.075-0.528,0.771-0.536,1.748l-0.005,0.91
		l0.366-0.083c0.438-0.098,0.638,0.536,0.058,0.666l-0.414,0.092l-0.028,2.855c-0.008,0.265,0.045,0.465,0.329,0.462
		c0.398-0.014,0.445,0.349,0.191,0.406l-1.933,0.433c-0.302,0.067-0.459-0.305-0.188-0.433c0.468-0.224,0.562-0.364,0.567-0.712
		l0.013-2.776l-0.215,0.048c-0.422,0.094-0.623-0.539-0.042-0.668l0.247-0.055l0.041-0.485c0.119-1.333,0.642-2.578,1.804-2.837
		C33.361,5.274,33.809,5.293,33.926,5.817"/>
	<path clip-path="url(#SVGID_2_)" fill-rule="evenodd" clip-rule="evenodd" fill="#EEE2D6" d="M20.395,11.549
		c0.412,0.475-0.066,0.764-0.45,0.402c-0.793-0.743-1.49-0.739-2.094-0.255c-1.514,1.213-0.938,3.718,0.077,4.984
		c0.765,0.956,1.952,1.591,3.046,0.715c0.885-0.708,1.122-1.912,0.715-2.42c-0.061-0.077-0.161-0.122-0.244-0.161
		c-0.759-0.321-0.609-0.942-0.26-1.223c0.305-0.245,0.654-0.147,0.883,0.138c0.657,0.82,0.561,2.956-0.928,4.148
		c-1.487,1.192-3.194,0.992-4.36-0.465c-1.3-1.623-1.27-4.635,0.493-6.046c0.598-0.479,0.95-0.353,1.172-0.531
		c0.165-0.133,0.192-0.385,0.195-0.564c-0.003-0.343,0.289-0.524,0.485-0.241C19.4,10.423,20.132,11.248,20.395,11.549"/>
	<path clip-path="url(#SVGID_2_)" fill-rule="evenodd" clip-rule="evenodd" fill="#EEE2D6" d="M58.156,24.315
		c-0.191,0.11-0.438,0.206-0.722,0.286l-1.252,0.375c-0.33,0.097-0.516,0.299-0.362,0.56c0.272,0.473-0.406,0.554-0.741-0.024
		c-0.256-0.444-0.299-0.957-0.023-1.294c-0.49-0.132-1.067-0.56-1.419-1.167c-0.415-0.719-0.484-1.357,0.229-1.77
		c0.926-0.535,1.764,0.148,2.137,0.618c0.229,0.293,0.574,0.827,0.811,1.104c0.3,0.355,0.613,0.492,1.052,0.239
		c0.396-0.229,0.41-0.69,0.142-1.155c-0.294-0.508-0.523-0.468-0.876-0.342c-0.324,0.123-0.653,0.041-0.904-0.39
		c-0.131-0.226-0.052-0.497,0.202-0.645c0.636-0.368,1.471,0.393,1.9,1.133C58.968,22.951,59.067,23.789,58.156,24.315
		 M56.691,23.704c-0.543-0.544-1.273-2.052-2.156-1.541c-0.367,0.212-0.371,0.544-0.203,0.833c0.407,0.706,1.359,1.145,2.074,0.833
		L56.691,23.704z"/>
	<path clip-path="url(#SVGID_2_)" fill-rule="evenodd" clip-rule="evenodd" fill="#EEE2D6" d="M55.257,19.644
		c-0.09,0.083-0.201,0.153-0.319,0.241l-2.165-2.34c-0.312,0.166-0.591,0.346-0.806,0.545c-0.539,0.487-0.813,1.173-0.254,1.778
		c0.325,0.353,0.9,0.555,1.338,0.151c0.293-0.271,0.663-0.458,1.006-0.088c0.211,0.227,0.152,0.56-0.07,0.764
		c-0.699,0.637-2.138-0.066-2.713-0.688c-0.968-1.047-0.722-2.185,0.052-2.899c0.922-0.852,2.604-1.099,3.773,0.165
		C55.672,17.896,56.084,18.88,55.257,19.644 M54.664,18.727c1.008-0.664-0.26-2.035-1.344-1.454L54.664,18.727z"/>
	<path clip-path="url(#SVGID_2_)" fill-rule="evenodd" clip-rule="evenodd" fill="#EEE2D6" d="M53.026,14.098
		c-0.354,0.585-1.239,0.831-1.931,0.667c0.436,0.867,0.275,1.399,0.029,1.803c-0.616,1.017-2.239,0.958-3.292,0.319
		c-0.564-0.343-1.099-0.734-1.663-1.078c-0.486-0.296-1.023-0.573-1.479-0.831c-0.098-0.059,0.067-0.598,0.36-0.42
		c0.473,0.287,0.848,0.458,1.194,0.105l3.146-3.202c0.741-0.75,0.307-1.197-0.439-1.649c-1.247-0.757-2.534-1.07-3.143-0.067
		c-0.222,0.362-0.17,0.955,0.227,1.196c0.293,0.177,0.565-0.067,0.826-0.09c0.517-0.049,0.631,0.421,0.433,0.749
		c-0.296,0.487-1.097,0.393-1.585,0.097c-0.703-0.427-0.921-1.465-0.502-2.156c0.888-1.463,2.678-0.987,4.252-0.031
		c0.445,0.271,0.904,0.568,1.341,0.853c0.251,0.17,0.897,0.534,1.085,0.647C52.925,11.642,53.758,12.892,53.026,14.098
		 M52.066,13.324c0.384-0.634,0.313-1.288-0.265-1.639c-0.411-0.25-0.784-0.199-1.353,0.39l-1.171,1.206l0.894,0.542
		C50.77,14.186,51.723,13.889,52.066,13.324 M50.082,15.886c0.362-0.599,0.294-1.271-0.403-1.694l-0.821-0.499l-1.868,1.899
		c0.229,0.081,0.328,0.305,0.942,0.678C48.753,16.77,49.726,16.472,50.082,15.886"/>
	<path clip-path="url(#SVGID_2_)" fill-rule="evenodd" clip-rule="evenodd" fill="#EEE2D6" d="M26.786,11.299
		c0.654,1.396,0.176,3.076-1.368,3.799c-1.045,0.49-2.02-0.026-2.482-1.012c-0.629-1.344-0.126-2.973,1.41-3.691
		C25.383,9.908,26.321,10.307,26.786,11.299 M25.665,11.551c-0.221-0.47-0.638-1.03-1.253-0.742
		c-0.949,0.445-0.764,2.115-0.396,2.899c0.241,0.515,0.756,1.228,1.431,0.913C26.396,14.175,26.012,12.29,25.665,11.551"/>
	<path clip-path="url(#SVGID_2_)" fill-rule="evenodd" clip-rule="evenodd" fill="#EEE2D6" d="M15.328,19.056
		c0.102,0.07,0.205,0.151,0.318,0.249l-1.837,2.662c0.233,0.271,0.481,0.491,0.725,0.659c0.599,0.423,1.336,0.542,1.808-0.143
		c0.177-0.256,0.271-0.651,0.172-0.96c-0.047-0.163-0.136-0.294-0.32-0.391c-0.3-0.157-0.598-0.553-0.308-0.972
		c0.177-0.257,0.518-0.272,0.769-0.099c0.781,0.548,0.402,2.126-0.084,2.831c-0.822,1.192-1.993,1.194-2.868,0.59
		c-1.043-0.72-1.652-2.329-0.666-3.757C13.522,19.019,14.392,18.411,15.328,19.056 M14.555,19.842
		c-0.873-0.852-1.948,0.705-1.135,1.645L14.555,19.842z"/>
	<path clip-path="url(#SVGID_2_)" fill-rule="evenodd" clip-rule="evenodd" fill="#EEE2D6" d="M13.018,26.001
		c1.645,0.51,2.24,2.264,1.579,4.071c-0.651,1.784-2.658,2.768-4.552,2.076c-1.026-0.375-2.305-1.233-3.115-3.274
		c-0.469,0.549-0.837,0.943-1.024,1.457c-0.244,0.666-0.218,1.525,0.302,1.716c0.331,0.121,0.639,0.016,0.744-0.275
		c0.146-0.397-0.591-0.485-0.387-1.043c0.106-0.292,0.294-0.388,0.543-0.287c0.536,0.222,0.631,0.847,0.476,1.319
		c-0.196,0.562-0.784,0.919-1.376,0.704c-1.073-0.393-1.146-1.687-0.727-2.834c0.202-0.551,0.522-1.059,1.103-1.766
		c-0.137-0.606-0.227-1.585,0.065-2.381c0.599-1.638,2.11-0.582,1.421,1.301c-0.163,0.444-0.388,0.813-0.582,1.15
		c0.604,1.575,1.663,2.5,2.949,2.97c1.445,0.529,3.186,0.245,3.765-1.339c0.476-1.301,0.057-2.389-1.226-2.938
		c-1.408-0.604-2.181,0.852-2.181,0.852c-0.452,0.746-0.205,1.392,0.147,1.382c0.263-0.008,0.548-0.226,0.792-0.136
		c0.576,0.21,0.188,1.274-0.736,0.937c-1.145-0.418-1.129-1.489-0.654-2.469C10.837,26.1,12.01,25.689,13.018,26.001 M7.249,25.701
		c-0.185,0.505-0.175,1.09-0.073,1.57c0.173-0.206,0.449-0.739,0.547-1.007C8.092,25.255,7.502,25.005,7.249,25.701"/>
	<path clip-path="url(#SVGID_2_)" fill-rule="evenodd" clip-rule="evenodd" fill="#EEE2D6" d="M12.311,24.759l1.884,1.309
		c0.242,0.169,0.369,0.189,0.438-0.001l0.543-1.187c0.098-0.268-0.163-0.534-0.518-0.225c-0.159,0.139-0.465,0.059-0.708-0.111
		l-1.243-0.866c-1.188-0.82-2.078-0.446-2.581,0.929c-0.081,0.222-0.167,0.799-0.139,1.068c-0.961-0.754-1.798-2.242-1.379-3.388
		c0.142-0.387,0.408-0.55,0.837-0.572c0.686-0.036,0.701-0.836,0.155-1.036c-0.521-0.191-1.114,0.595-1.285,1.062
		c-0.772,2.109,0.326,4.473,2.063,5.752c0.198,0.13,0.45,0.292,0.45,0.29l1.739,1.2c0.316,0.214,0.179,0.84,0.447,0.938
		c0.189,0.069,0.294-0.018,0.386-0.271l0.455-1.572c0.043-0.119-0.05-0.286-0.177-0.332c-0.371-0.135-0.289,0.436-0.812,0.102
		c0,0-1.736-1.155-1.934-1.327c-0.537-0.393-0.588-0.921-0.374-1.505C10.942,24.017,11.656,24.296,12.311,24.759"/>
	<path clip-path="url(#SVGID_2_)" fill-rule="evenodd" clip-rule="evenodd" fill="#EEE2D6" d="M37.812,9.74
		c0,0.122-0.009,0.253-0.024,0.399h-3.204c-0.09,0.342-0.13,0.668-0.13,0.962c-0.008,0.726,0.31,1.393,1.133,1.393
		c0.309,0,0.684-0.146,0.879-0.398c0.106-0.13,0.164-0.277,0.139-0.481c-0.041-0.334,0.106-0.799,0.619-0.799
		c0.311,0,0.506,0.27,0.506,0.571c0,0.945-1.5,1.524-2.347,1.524c-1.434,0-2.095-0.953-2.095-2.006c0-1.255,0.969-2.657,2.689-2.657
		C36.825,8.248,37.812,8.614,37.812,9.74 M36.735,9.552c0.203-1.19-1.671-1.19-1.98,0H36.735z"/>
	<path clip-path="url(#SVGID_2_)" fill-rule="evenodd" clip-rule="evenodd" fill="#EEE2D6" d="M42.945,10.887
		c-0.025,0.119-0.063,0.245-0.111,0.384l-3.124-0.704c-0.162,0.314-0.282,0.623-0.346,0.909c-0.16,0.708-0.005,1.428,0.799,1.609
		c0.31,0.07,0.7,0.008,0.946-0.197c0.132-0.104,0.221-0.234,0.24-0.438c0.034-0.335,0.287-0.754,0.788-0.642
		c0.302,0.068,0.434,0.374,0.367,0.668c-0.208,0.923-1.805,1.156-2.632,0.971c-1.392-0.313-1.835-1.391-1.604-2.417
		c0.275-1.225,1.529-2.38,3.216-2C42.312,9.214,43.192,9.789,42.945,10.887 M41.938,10.467c0.452-1.119-1.369-1.528-1.933-0.435
		L41.938,10.467z"/>
	<path clip-path="url(#SVGID_2_)" fill-rule="evenodd" clip-rule="evenodd" fill="#EEE2D6" d="M28.653,56.576
		c-0.359,0.688-2.047,0.384-2.64,0.092c-0.352-0.174-0.511-0.217-0.663-0.032l-2.997,3.561c-0.2,0.243-0.214,0.464-0.122,0.605
		c0.284,0.44,0.213,0.808-0.235,0.573c-0.292-0.144-0.652-0.303-0.983-0.474c-0.326-0.17-0.648-0.329-0.885-0.49
		c-0.371-0.258-0.28-0.591,0.092-0.545c0.373,0.043,0.76,0.075,1.048-0.265l2.935-3.442c0.371-0.43,0.097-0.752-0.1-0.919
		c-0.19-0.166-0.71-0.7-1.397-1.059c-0.954-0.499-2.138-0.483-2.635,0.47c-0.383,0.734-0.214,1.257,0.429,1.592
		c0.413,0.215,0.581,0.086,0.813-0.359c0.201-0.384,0.494-0.609,0.911-0.391c0.333,0.174,0.418,0.576,0.279,0.842
		c-0.398,0.763-1.618,0.759-2.239,0.434c-0.903-0.47-1.291-1.437-0.812-2.355c0.854-1.637,2.71-1.213,4.17-0.451
		c0.296,0.152,2.492,1.617,3.438,2.111c0.181,0.097,0.348,0.144,0.508,0.191c0.252,0.064,0.395,0.036,0.749-0.063
		C28.585,56.125,28.804,56.288,28.653,56.576"/>
	<path clip-path="url(#SVGID_2_)" fill-rule="evenodd" clip-rule="evenodd" fill="#EEE2D6" d="M44.453,60.901
		c-0.127,0.635-0.14,1.034-0.177,1.616c-0.019,0.292-0.063,0.58-0.675,0.692c-0.21,0.036-0.858,0.154-1.605,0.317
		c-0.797,0.176-1.708,0.396-2.32,0.571c-0.886,0.262-0.966-0.329-0.641-0.483c0.757-0.353,0.789-0.513,0.806-1.039l0.118-4.005
		c0.011-0.215,0.007-0.392-0.023-0.528c-0.075-0.338-0.33-0.51-0.907-0.518c-0.555-0.014-1.131,0.021-1.449,0.092
		c-1.266,0.279-1.949,0.808-1.711,1.888c0.103,0.469,0.526,0.797,1.036,0.686c0.224-0.05,0.419-0.254,0.377-0.447
		c-0.104-0.466,0.197-0.693,0.396-0.736c0.391-0.086,0.638,0.086,0.727,0.489c0.123,0.565-0.535,1.132-1.156,1.268
		c-0.82,0.18-1.771-0.157-1.972-1.067c-0.316-1.435,0.729-2.3,2.075-2.597c0.302-0.064,0.607-0.081,0.917-0.116
		c0.662-0.062,1.764-0.178,2.679-0.38c0.325-0.07,0.604-0.174,0.825-0.267c0.212-0.096,0.394-0.146,0.52-0.182
		c0.318-0.069,0.429,0.015,0.417,0.152c-0.011,0.258-0.247,0.436-0.518,0.563c-0.835,0.378-0.972,0.704-0.979,1.052l-0.142,4.467
		c-0.005,0.204-0.016,0.351,0.007,0.447c0.057,0.258,0.603,0.197,0.968,0.116c1.003-0.222,1.482-0.963,1.821-1.923
		c0.097-0.283,0.185-0.521,0.32-0.552C44.36,60.439,44.509,60.583,44.453,60.901"/>
	<path clip-path="url(#SVGID_2_)" fill-rule="evenodd" clip-rule="evenodd" fill="#EEE2D6" d="M16.038,56.608
		c-0.464,0.378-1.6-0.138-1.986-0.61c-0.278-0.344-0.491-0.831-0.551-1.519c-0.708-0.242-1.306-0.67-1.743-1.207
		c-0.782-0.962-0.884-2.519,0.149-3.358c0.897-0.73,2.08-0.464,3.136-0.061c0.063-0.072,0.13-0.147,0.209-0.212
		c0.831-0.675,2.328-1.053,3.079-0.131c0.396,0.487,0.469,1.258-0.074,1.7c-0.72,0.584-1.979,0.159-2.779-0.154
		c-0.372,0.532-1.083,2.076-1.083,2.959c0.629,0.118,1.134-0.103,1.487-0.391c0.302-0.245,0.383-0.532,0.632-0.734
		c0.249-0.202,0.617-0.136,0.854,0.156c0.231,0.284,0.044,0.668-0.303,0.949c-0.452,0.368-1.342,0.61-2.735,0.555
		c-0.118,0.631,0.005,0.994,0.169,1.196c0.123,0.152,0.289,0.195,0.395,0.206c0.287,0.017,0.682-0.337,0.888-0.324
		c0.152,0.013,0.252,0.068,0.319,0.148C16.323,56.05,16.268,56.421,16.038,56.608 M17.922,50.664
		c0.274-0.224,0.365-0.591,0.108-0.909c-0.427-0.523-1.208-0.161-1.692,0.232c-0.164,0.133-0.292,0.269-0.376,0.38
		C16.479,50.724,17.477,51.026,17.922,50.664 M13.475,53.872c-0.008-0.623,0.211-2.013,0.865-3.226
		c-0.527-0.275-1.156-0.204-1.621,0.172c-0.772,0.629-0.813,1.701-0.231,2.416C12.694,53.487,13.032,53.688,13.475,53.872"/>
	<path clip-path="url(#SVGID_2_)" fill-rule="evenodd" clip-rule="evenodd" fill="#EEE2D6" d="M53.64,48.576
		c0.172,0.179,0.316,0.516,0.128,0.695c-0.45,0.438-1.015-0.253-1.214-0.06c-0.241,0.231-0.048,0.947,0.483,1.802l0.501,0.788
		l0.259-0.249c0.326-0.318,0.849,0.142,0.421,0.554l-0.31,0.301l1.533,2.515c0.143,0.228,0.29,0.383,0.539,0.228
		c0.333-0.217,0.555,0.082,0.368,0.263l-1.427,1.378c-0.221,0.213-0.554-0.023-0.384-0.283c0.287-0.442,0.279-0.614,0.088-0.917
		l-1.486-2.441l-0.164,0.161c-0.305,0.294-0.827-0.166-0.398-0.58l0.188-0.181l-0.232-0.427c-0.651-1.227-0.897-2.561-0.041-3.387
		C52.807,48.43,53.254,48.177,53.64,48.576"/>
	<path clip-path="url(#SVGID_2_)" fill-rule="evenodd" clip-rule="evenodd" fill="#EEE2D6" d="M52.377,54.892
		c0.134,0.177,0.256,0.419,0.376,0.688l0.514,1.194c0.142,0.324,0.369,0.477,0.61,0.294c0.436-0.328,0.59,0.333,0.056,0.736
		c-0.41,0.31-0.906,0.408-1.278,0.188c-0.063,0.498-0.419,1.123-0.984,1.55c-0.656,0.496-1.282,0.643-1.778-0.015
		c-0.644-0.853-0.078-1.77,0.354-2.197c0.252-0.262,0.75-0.67,0.996-0.938c0.312-0.346,0.415-0.67,0.11-1.071
		c-0.274-0.365-0.746-0.326-1.168-0.009c-0.476,0.361-0.402,0.593-0.229,0.92c0.156,0.298,0.12,0.644-0.277,0.942
		c-0.207,0.156-0.485,0.113-0.663-0.122c-0.447-0.591,0.21-1.506,0.887-2.017C50.93,54.259,51.748,54.059,52.377,54.892
		 M51.942,56.426c-0.463,0.605-1.876,1.518-1.263,2.332c0.257,0.339,0.582,0.296,0.855,0.09c0.65-0.491,0.974-1.481,0.574-2.149
		L51.942,56.426z"/>
	<path clip-path="url(#SVGID_2_)" fill-rule="evenodd" clip-rule="evenodd" fill="#EEE2D6" d="M48.476,57.8
		c0.057,0.107,0.103,0.232,0.155,0.369l-2.835,1.474c0.08,0.346,0.18,0.661,0.315,0.921c0.335,0.645,0.919,1.096,1.648,0.716
		c0.428-0.222,0.769-0.732,0.494-1.261c-0.182-0.346-0.265-0.752,0.191-0.99c0.274-0.144,0.572,0.004,0.711,0.272
		c0.438,0.84-0.62,2.04-1.37,2.432c-1.273,0.663-2.303,0.115-2.784-0.813c-0.583-1.118-0.382-2.796,1.15-3.595
		C46.904,56.935,47.951,56.793,48.476,57.8 M47.431,58.122c-0.366-1.143-2.027-0.277-1.756,0.915L47.431,58.122z"/>
	<path clip-path="url(#SVGID_2_)" fill-rule="evenodd" clip-rule="evenodd" fill="#EEE2D6" d="M33.243,61.29
		c-0.033,0.217-0.12,0.477-0.226,0.749l-0.489,1.205c-0.131,0.326-0.079,0.599,0.219,0.642c0.532,0.077,0.176,0.651-0.485,0.557
		c-0.507-0.075-0.928-0.358-1.031-0.777c-0.399,0.303-1.093,0.489-1.794,0.387c-0.814-0.118-1.359-0.462-1.239-1.276
		c0.154-1.057,1.204-1.299,1.813-1.293c0.363-0.004,1.003,0.064,1.368,0.052c0.465-0.021,0.768-0.176,0.841-0.674
		c0.066-0.453-0.292-0.761-0.817-0.838c-0.588-0.086-0.702,0.127-0.812,0.483c-0.105,0.32-0.375,0.537-0.867,0.466
		c-0.258-0.039-0.423-0.269-0.381-0.559c0.107-0.734,1.222-0.908,2.059-0.786C32.677,59.813,33.394,60.257,33.243,61.29
		 M31.845,62.057c-0.755,0.094-2.398-0.269-2.546,0.74c-0.061,0.419,0.198,0.621,0.535,0.673c0.807,0.118,1.741-0.349,1.933-1.103
		L31.845,62.057z"/>
	<path clip-path="url(#SVGID_2_)" fill-rule="evenodd" clip-rule="evenodd" fill="#EEE2D6" d="M28.539,60.684
		c-0.04,0.116-0.097,0.234-0.161,0.367l-3.021-1.037c-0.197,0.295-0.357,0.584-0.452,0.861c-0.236,0.688-0.16,1.422,0.618,1.688
		c0.456,0.156,1.06,0.051,1.252-0.512c0.127-0.369,0.365-0.711,0.852-0.543c0.292,0.101,0.39,0.419,0.292,0.704
		c-0.307,0.894-1.904,0.956-2.708,0.681c-1.355-0.466-1.667-1.589-1.329-2.577c0.41-1.193,1.765-2.203,3.4-1.643
		C28.083,58.949,28.907,59.612,28.539,60.684 M27.585,60.149c0.577-1.053-1.196-1.66-1.873-0.645L27.585,60.149z"/>
	<path clip-path="url(#SVGID_2_)" fill-rule="evenodd" clip-rule="evenodd" fill="#EEE2D6" d="M57.886,32.833
		c-0.779,0.29-1.733-0.217-2.015-0.974c-0.485-1.306,0.518-2.235,1.733-2.338l1.782-0.14c0.17-0.011,0.34-0.048,0.487-0.094
		c0.481-0.179,0.58-0.546,0.385-1.073c-0.228-0.611-0.859-1.047-1.737-0.929l-1.667,0.218c-0.171,0.03-0.274,0.172-0.281,0.322
		c-0.011,0.37-0.418,0.347-0.561-0.035l-0.489-1.322c-0.095-0.251,0.26-0.324,0.412-0.127c0.091,0.104,0.102,0.179,0.44,0.131
		l2.573-0.312c0.257-0.034,0.386-0.082,0.317-0.361c-0.113-0.445,0.26-0.471,0.442-0.26c0.32,0.368,0.621,1.256,0.681,1.416
		c0.05,0.13-0.021,0.174-0.113,0.182l-0.46,0.05c0.786,0.411,1.162,0.951,1.314,1.363c0.274,0.741-0.021,1.513-0.752,1.792
		c-0.229,0.085-0.507,0.11-0.792,0.137l-2.058,0.156c-0.479,0.039-1.583,0.231-1.275,1.056c0.099,0.267,0.5,0.439,0.769,0.34
		c0.222-0.082,0.376-0.322,0.597-0.404c0.224-0.082,0.514,0.018,0.625,0.315C58.391,32.341,58.215,32.711,57.886,32.833"/>
	<path clip-path="url(#SVGID_2_)" fill-rule="evenodd" clip-rule="evenodd" fill="#EEE2D6" d="M58.156,24.315
		c-0.191,0.11-0.438,0.206-0.722,0.286l-1.252,0.375c-0.33,0.097-0.516,0.299-0.362,0.56c0.272,0.473-0.406,0.554-0.741-0.024
		c-0.256-0.444-0.299-0.957-0.023-1.294c-0.49-0.132-1.067-0.56-1.419-1.167c-0.415-0.719-0.484-1.357,0.229-1.77
		c0.926-0.535,1.764,0.148,2.137,0.618c0.229,0.293,0.574,0.827,0.811,1.104c0.3,0.355,0.613,0.492,1.052,0.239
		c0.396-0.229,0.41-0.69,0.142-1.155c-0.294-0.508-0.523-0.468-0.876-0.342c-0.324,0.123-0.653,0.041-0.904-0.39
		c-0.131-0.226-0.052-0.497,0.202-0.645c0.636-0.368,1.471,0.393,1.9,1.133C58.968,22.951,59.067,23.789,58.156,24.315
		 M56.691,23.704c-0.543-0.544-1.273-2.052-2.156-1.541c-0.367,0.212-0.371,0.544-0.203,0.833c0.407,0.706,1.359,1.145,2.074,0.833
		L56.691,23.704z"/>
	<path clip-path="url(#SVGID_2_)" fill-rule="evenodd" clip-rule="evenodd" fill="#EEE2D6" d="M55.257,19.644
		c-0.09,0.083-0.201,0.153-0.319,0.241l-2.165-2.34c-0.312,0.166-0.591,0.346-0.806,0.545c-0.539,0.487-0.813,1.173-0.254,1.778
		c0.325,0.353,0.9,0.555,1.338,0.151c0.293-0.271,0.663-0.458,1.006-0.088c0.211,0.227,0.152,0.56-0.07,0.764
		c-0.699,0.637-2.138-0.066-2.713-0.688c-0.968-1.047-0.722-2.185,0.052-2.899c0.922-0.852,2.604-1.099,3.773,0.165
		C55.672,17.896,56.084,18.88,55.257,19.644 M54.664,18.727c1.008-0.664-0.26-2.035-1.344-1.454L54.664,18.727z"/>
	<path clip-path="url(#SVGID_2_)" fill-rule="evenodd" clip-rule="evenodd" fill="#EEE2D6" d="M53.026,14.098
		c-0.354,0.585-1.239,0.831-1.931,0.667c0.436,0.867,0.275,1.399,0.029,1.803c-0.616,1.017-2.239,0.958-3.292,0.319
		c-0.564-0.343-1.099-0.734-1.663-1.078c-0.486-0.296-1.023-0.573-1.479-0.831c-0.098-0.059,0.067-0.598,0.36-0.42
		c0.473,0.287,0.848,0.458,1.194,0.105l3.146-3.202c0.741-0.75,0.307-1.197-0.439-1.649c-1.247-0.757-2.534-1.07-3.143-0.067
		c-0.222,0.362-0.17,0.955,0.227,1.196c0.293,0.177,0.565-0.067,0.826-0.09c0.517-0.049,0.631,0.421,0.433,0.749
		c-0.296,0.487-1.097,0.393-1.585,0.097c-0.703-0.427-0.921-1.465-0.502-2.156c0.888-1.463,2.678-0.987,4.252-0.031
		c0.445,0.271,0.904,0.568,1.341,0.853c0.251,0.17,0.897,0.534,1.085,0.647C52.925,11.642,53.758,12.892,53.026,14.098
		 M52.066,13.324c0.384-0.634,0.313-1.288-0.265-1.639c-0.411-0.25-0.784-0.199-1.353,0.39l-1.171,1.206l0.894,0.542
		C50.77,14.186,51.723,13.889,52.066,13.324 M50.082,15.886c0.362-0.599,0.294-1.271-0.403-1.694l-0.821-0.499l-1.868,1.899
		c0.229,0.081,0.328,0.305,0.942,0.678C48.753,16.77,49.726,16.472,50.082,15.886"/>
	<path clip-path="url(#SVGID_2_)" fill-rule="evenodd" clip-rule="evenodd" fill="#EEE2D6" d="M42.945,10.887
		c-0.025,0.119-0.063,0.245-0.111,0.384l-3.124-0.704c-0.162,0.314-0.282,0.623-0.346,0.909c-0.16,0.708-0.005,1.428,0.799,1.609
		c0.31,0.07,0.7,0.008,0.946-0.197c0.132-0.104,0.221-0.234,0.24-0.438c0.034-0.335,0.287-0.754,0.788-0.642
		c0.302,0.068,0.434,0.374,0.367,0.668c-0.208,0.923-1.805,1.156-2.632,0.971c-1.392-0.313-1.835-1.391-1.604-2.417
		c0.275-1.225,1.529-2.38,3.216-2C42.312,9.214,43.192,9.789,42.945,10.887 M41.938,10.467c0.452-1.119-1.369-1.528-1.933-0.435
		L41.938,10.467z"/>
	<path clip-path="url(#SVGID_2_)" fill="#EEE2D6" d="M57.974,39.074c0.876,0,1.59,0.714,1.59,1.591c0,0.876-0.714,1.591-1.59,1.591
		c-0.878,0-1.591-0.715-1.591-1.591C56.383,39.788,57.096,39.074,57.974,39.074 M57.974,41.973c0.722,0,1.308-0.587,1.308-1.308
		c0-0.722-0.586-1.309-1.308-1.309c-0.724,0-1.31,0.587-1.31,1.309C56.664,41.386,57.25,41.973,57.974,41.973 M57.361,39.745h0.7
		c0.437,0,0.643,0.198,0.643,0.548c0,0.315-0.189,0.471-0.437,0.501l0.475,0.769h-0.35l-0.453-0.743h-0.245v0.743h-0.333V39.745z
		 M57.694,40.536h0.245c0.204,0,0.432-0.014,0.432-0.256c0-0.243-0.228-0.258-0.432-0.254h-0.245V40.536z"/>
	<path clip-path="url(#SVGID_2_)" fill-rule="evenodd" clip-rule="evenodd" fill="#EEE2D6" d="M33.831,68.327
		c-0.001,0.073-0.039,0.148-0.114,0.191c-0.05,0.025-0.159,0.045-0.212,0.019c-0.079-0.038-0.127-0.126-0.098-0.212
		c0.034-0.097,0.125-0.172,0.226-0.181C33.766,68.134,33.833,68.229,33.831,68.327"/>
	<path clip-path="url(#SVGID_2_)" fill-rule="evenodd" clip-rule="evenodd" fill="#EEE2D6" d="M31.907,66.966
		c0.06,0.036,0.104,0.092,0.116,0.169c0.004,0.028-0.006,0.05-0.015,0.075c-0.025,0.071-0.125,0.086-0.185,0.052
		c-0.046-0.027-0.082-0.103-0.119-0.142c-0.085-0.095-0.232-0.133-0.351-0.077c-0.102,0.047-0.157,0.148-0.125,0.26
		c0.024,0.084,0.146,0.129,0.218,0.163c0.097,0.043,0.199,0.073,0.291,0.129c0.112,0.064,0.203,0.146,0.2,0.283
		c-0.003,0.258-0.232,0.428-0.463,0.475c-0.077,0.016-0.157,0.024-0.234,0.026c-0.108,0.004-0.22-0.02-0.324-0.048
		c-0.13-0.034-0.325-0.133-0.288-0.301c0.014-0.064,0.1-0.115,0.165-0.094c0.076,0.025,0.12,0.101,0.175,0.154
		c0.06,0.058,0.136,0.107,0.219,0.127c0.13,0.03,0.307-0.023,0.343-0.172c0.018-0.077-0.009-0.159-0.078-0.202
		c-0.111-0.068-0.237-0.09-0.352-0.148c-0.093-0.045-0.191-0.111-0.235-0.21c-0.042-0.095-0.033-0.24,0.021-0.331
		c0.067-0.111,0.198-0.206,0.326-0.24c0.077-0.02,0.158-0.034,0.238-0.034C31.576,66.878,31.778,66.884,31.907,66.966"/>
	<path clip-path="url(#SVGID_2_)" fill-rule="evenodd" clip-rule="evenodd" fill="#EEE2D6" d="M32.942,66.688
		c0.021-0.018,0.045-0.025,0.072-0.013c0.072,0.032,0.01,0.17-0.003,0.224c-0.003,0.011-0.036,0.174-0.042,0.174
		c0.082,0.002,0.273-0.028,0.295,0.088c0.016,0.086-0.071,0.135-0.145,0.133l-0.206-0.004c-0.061,0.247-0.12,0.494-0.182,0.738
		c-0.012,0.052-0.064,0.166-0.006,0.204c0.033,0.021,0.07,0.021,0.106,0.013c0.079-0.017,0.126-0.051,0.197-0.088
		c0.063-0.03,0.138,0.005,0.134,0.08c-0.002,0.109-0.123,0.156-0.206,0.199c-0.146,0.073-0.273,0.093-0.434,0.061
		c-0.086-0.018-0.183-0.043-0.21-0.14c-0.036-0.118,0.036-0.273,0.067-0.387c0.038-0.14,0.076-0.281,0.114-0.421
		c0.024-0.088,0.048-0.179,0.072-0.267c-0.077-0.006-0.267-0.017-0.167-0.142c0.054-0.068,0.149-0.064,0.223-0.095
		c0.084-0.036,0.145-0.109,0.202-0.178C32.853,66.835,32.89,66.731,32.942,66.688"/>
	<path clip-path="url(#SVGID_2_)" fill-rule="evenodd" clip-rule="evenodd" fill="#EEE2D6" d="M29.916,66.029
		c0.115,0.02,0.229,0.056,0.318,0.133c0.094,0.08,0.161,0.204,0.207,0.318c0.025,0.064,0.043,0.212,0.147,0.193
		c0.129-0.021,0.08-0.198,0.074-0.279c-0.01-0.116-0.021-0.232-0.031-0.346c-0.004-0.028-0.005-0.056-0.007-0.084
		c-0.002-0.015-0.327-0.054-0.349-0.058c-0.208-0.037-0.417-0.067-0.625-0.102c-0.124-0.02-0.249-0.043-0.372-0.07
		c-0.149-0.032-0.299-0.059-0.451-0.084c-0.282-0.048-0.631-0.066-0.885,0.088c-0.164,0.099-0.311,0.272-0.324,0.473
		c-0.004,0.066,0.006,0.133,0.023,0.197c0.045,0.163,0.154,0.312,0.32,0.367c0.106,0.037,0.236,0.032,0.34-0.009
		c0.109-0.045,0.194-0.111,0.185-0.242c-0.005-0.061-0.032-0.127-0.088-0.154c-0.068-0.032-0.147,0.011-0.203,0.051
		c-0.045,0.032-0.088,0.08-0.146,0.088c-0.109,0.016-0.21-0.115-0.225-0.212c-0.016-0.104,0.047-0.213,0.108-0.294
		c0.066-0.086,0.146-0.112,0.247-0.148c0.083-0.032,0.19-0.052,0.28-0.056c0.15-0.009,0.267,0.015,0.414,0.051
		c0.101,0.024,0.228,0.052,0.26,0.161c0.036,0.12-0.028,0.245-0.075,0.354c-0.055,0.131-0.11,0.265-0.166,0.396
		c-0.103,0.247-0.21,0.491-0.311,0.738c-0.043,0.109-0.098,0.226-0.236,0.236c-0.07,0.007-0.137-0.025-0.206-0.021
		c-0.049,0.005-0.073,0.069-0.061,0.109c0,0-0.006,0.037-0.006,0.039c-0.009,0.054,0.138,0.043,0.163,0.045
		c0.044,0.007,0.088,0.011,0.132,0.018c0.094,0.013,0.188,0.021,0.282,0.032c0.423,0.054,0.844,0.144,1.265,0.212
		c0.008,0.003,0.106,0.026,0.111,0.02c0.056-0.075,0.113-0.15,0.169-0.226c0.043-0.056,0.085-0.113,0.129-0.169
		c0.047-0.063,0.119-0.14,0.133-0.22c0.015-0.077-0.055-0.135-0.127-0.109c-0.042,0.015-0.076,0.071-0.107,0.099
		c-0.047,0.043-0.1,0.08-0.152,0.118c-0.083,0.063-0.173,0.118-0.272,0.146c-0.178,0.052-0.369,0.07-0.557,0.045
		c-0.051-0.007-0.11-0.011-0.159-0.025c-0.059-0.018-0.118-0.026-0.154-0.08l-0.011-0.015l0.002-0.013l0.001-0.011l0.003-0.016
		l0.29-0.713c0,0,0.077,0.013,0.077,0.015c0.104,0.018,0.233,0.032,0.303,0.123c0.027,0.034,0.05,0.073,0.05,0.118
		c0,0.054-0.032,0.105-0.012,0.159c0.018,0.047,0.062,0.07,0.112,0.062c0.06-0.011,0.083-0.099,0.102-0.146
		c0.023-0.056,0.046-0.114,0.069-0.172c0.038-0.097,0.079-0.193,0.119-0.29c0.024-0.061,0.137-0.238,0.038-0.29
		c-0.063-0.034-0.147,0.073-0.185,0.111c-0.057,0.063-0.142,0.125-0.222,0.146c-0.129,0.034-0.252,0-0.381-0.021l0.239-0.564
		c0.04-0.073,0.066-0.181,0.146-0.22c0.06-0.029,0.134-0.021,0.198-0.013C29.883,66.022,29.899,66.025,29.916,66.029"/>
	<path clip-path="url(#SVGID_2_)" fill-rule="evenodd" clip-rule="evenodd" fill="#EEE2D6" d="M41.046,66.781
		c0.083-0.014,0.164-0.03,0.246-0.054c0.063-0.018,0.109-0.069,0.156-0.112c0.14-0.126,0.189-0.403,0.018-0.526
		c-0.105-0.074-0.249-0.101-0.373-0.066c-0.097,0.026-0.217,0.102-0.224,0.211c-0.003,0.045,0.033,0.101,0.037,0.146
		c0.002,0.041-0.004,0.08-0.025,0.114c-0.059,0.095-0.224,0.124-0.299,0.038c-0.033-0.038-0.043-0.128-0.04-0.176
		c0.005-0.06,0.029-0.116,0.063-0.165c0.066-0.099,0.17-0.17,0.277-0.224c0.056-0.027,0.113-0.049,0.174-0.068
		c0.184-0.059,0.411-0.077,0.598-0.018c0.277,0.091,0.406,0.43,0.209,0.661c-0.093,0.11-0.206,0.177-0.333,0.243
		c0.142,0.045,0.302,0.047,0.392,0.185c0.056,0.082,0.086,0.181,0.086,0.281c0.001,0.31-0.249,0.522-0.515,0.625
		c-0.24,0.093-0.565,0.165-0.814,0.056c-0.056-0.023-0.116-0.066-0.157-0.113c-0.112-0.134-0.098-0.385,0.081-0.458
		c0.085-0.034,0.188-0.006,0.22,0.086c0.032,0.093-0.068,0.181,0.013,0.273c0.039,0.043,0.144,0.075,0.2,0.09
		c0.063,0.015,0.126,0.009,0.186-0.011c0.115-0.034,0.238-0.107,0.301-0.213c0.034-0.056,0.061-0.133,0.064-0.199
		c0.007-0.084-0.002-0.209-0.04-0.286c-0.039-0.086-0.119-0.144-0.207-0.172c-0.027-0.006-0.297-0.029-0.296-0.011
		C41.042,66.905,41.042,66.781,41.046,66.781"/>
	<path clip-path="url(#SVGID_2_)" fill-rule="evenodd" clip-rule="evenodd" fill="#EEE2D6" d="M35.879,66.553v-0.025l-0.013-0.013
		h-0.013H35.84c-0.042,0-0.108,0.034-0.152,0.047c-0.064,0.02-0.137,0.056-0.203,0.064c-0.104,0.016-0.204,0.028-0.309,0.026
		c-0.047,0-0.105-0.014-0.147,0.015c-0.048,0.03-0.055,0.095-0.007,0.129c0.031,0.023,0.072,0.011,0.108,0.015
		c0.068,0.009,0.164,0.026,0.218,0.071c0.056,0.047,0.041,0.12,0.027,0.183c-0.021,0.092-0.035,0.165-0.057,0.258
		c-0.045,0.195-0.086,0.393-0.135,0.588c-0.01,0.039-0.013,0.077-0.022,0.116c-0.01,0.047-0.03,0.138-0.064,0.172
		c-0.025,0.023-0.057,0.052-0.087,0.073c-0.079,0.058-0.172,0.073-0.266,0.097c-0.042,0.011-0.1,0.038-0.092,0.09
		c0.015,0.105,0.26,0.084,0.337,0.084c0.239,0,0.479-0.002,0.718-0.011c0.049-0.005,0.127-0.03,0.124-0.095
		c-0.004-0.066-0.095-0.099-0.147-0.107c-0.061-0.009-0.149-0.017-0.173-0.084c-0.028-0.077,0.024-0.223,0.045-0.301
		c0.032-0.126,0.06-0.255,0.089-0.382c0.061-0.274,0.126-0.55,0.191-0.824C35.851,66.682,35.879,66.611,35.879,66.553"/>
	<path clip-path="url(#SVGID_2_)" fill-rule="evenodd" clip-rule="evenodd" fill="#EEE2D6" d="M36.778,68.531
		c-0.095,0.006-0.194,0.002-0.283-0.021c-0.086-0.02-0.2-0.052-0.254-0.129c-0.026-0.039-0.04-0.099-0.033-0.146
		c0.017-0.104,0.087-0.172,0.186-0.197c0.232-0.063,0.146,0.213,0.253,0.288c0.205,0.146,0.602-0.129,0.689-0.26
		c0.092-0.138,0.107-0.265,0.175-0.413c0.024-0.056,0.048-0.131,0.063-0.188c-0.095,0.081-0.207,0.17-0.325,0.21
		c-0.121,0.046-0.259,0.08-0.389,0.071c-0.066-0.004-0.142-0.009-0.204-0.032s-0.116-0.073-0.17-0.111
		c-0.044-0.03-0.071-0.069-0.091-0.121c-0.052-0.137-0.067-0.272-0.037-0.416c0.031-0.14,0.113-0.275,0.219-0.374
		c0.222-0.208,0.586-0.322,0.888-0.271c0.27,0.048,0.474,0.238,0.508,0.516c0.042,0.353-0.019,0.726-0.207,1.03
		c-0.155,0.247-0.376,0.424-0.658,0.51c-0.071,0.021-0.146,0.038-0.22,0.047C36.852,68.526,36.815,68.531,36.778,68.531
		 M37.242,66.57c-0.146,0.009-0.28,0.09-0.369,0.204c-0.085,0.107-0.119,0.236-0.13,0.369c-0.013,0.15,0.039,0.322,0.185,0.389
		c0.118,0.054,0.271,0.016,0.378-0.043c0.226-0.124,0.343-0.444,0.26-0.693c-0.021-0.061-0.062-0.146-0.12-0.179
		C37.38,66.579,37.311,66.566,37.242,66.57"/>
	<path clip-path="url(#SVGID_2_)" fill-rule="evenodd" clip-rule="evenodd" fill="#EEE2D6" d="M39.863,66.728
		c-0.04,0.002-0.08-0.011-0.112-0.05c-0.047-0.056-0.05-0.114-0.052-0.185c-0.011-0.217-0.278-0.183-0.407-0.116
		c-0.127,0.066-0.214,0.145-0.284,0.271c-0.048,0.086-0.088,0.17-0.116,0.263l-0.022,0.079l-0.024,0.079l-0.032,0.172l0.063-0.068
		c0.16-0.099,0.322-0.185,0.514-0.204c0.154-0.013,0.314,0.025,0.442,0.111c0.059,0.037,0.102,0.091,0.136,0.15
		c0.131,0.222,0.061,0.507-0.075,0.709c-0.101,0.146-0.264,0.234-0.425,0.303c-0.101,0.043-0.221,0.056-0.329,0.061
		c-0.239,0.008-0.512-0.061-0.634-0.288c-0.082-0.15-0.117-0.326-0.105-0.498c0.008-0.125,0.012-0.258,0.041-0.383
		c0.027-0.116,0.079-0.238,0.134-0.346c0.053-0.099,0.125-0.204,0.205-0.285c0.124-0.127,0.306-0.232,0.478-0.279
		c0.157-0.043,0.285-0.045,0.444-0.016c0.097,0.018,0.189,0.041,0.257,0.114c0.055,0.061,0.104,0.144,0.094,0.228
		C40.041,66.635,39.952,66.721,39.863,66.728 M39.281,67.148c-0.009,0-0.016,0.002-0.023,0.004
		c-0.144,0.025-0.246,0.063-0.335,0.185c-0.065,0.086-0.097,0.185-0.113,0.294c-0.021,0.138-0.003,0.342,0.114,0.44
		c0.137,0.114,0.323,0.114,0.468,0.013c0.047-0.032,0.081-0.079,0.116-0.122c0.141-0.174,0.208-0.559,0.034-0.732
		C39.475,67.163,39.373,67.14,39.281,67.148"/>
</g>
</svg>
